<?xml version="1.0" encoding="utf-8"?>
<!-- Generator: Adobe Illustrator 27.5.0, SVG Export Plug-In . SVG Version: 6.00 Build 0)  -->
<svg version="1.1" xmlns="http://www.w3.org/2000/svg" xmlns:xlink="http://www.w3.org/1999/xlink" x="0px" y="0px"
	 viewBox="0 0 2200 2200" style="enable-background:new 0 0 2200 2200;" xml:space="preserve">
<g id="background">
	<rect style="fill:#FFFFFF;" width="2200" height="2200"/>
</g>
<g id="Objects">
	<g>
		<g>
			<path style="fill:#FFB000;" d="M1870.234,817.145c-35.899-7.491-71.785-14.98-107.664-22.467
				c-18.304-3.792-36.607-7.584-54.908-11.376l-28.995-6.291c-38.663-8.359-77.339-16.602-116.045-24.732
				c-38.705-8.13-77.44-16.149-116.219-24.059c-19.395-3.927-38.796-7.855-58.204-11.785c-9.708-1.944-19.418-3.888-29.131-5.833
				l-3.643-0.726l-1.545-0.309l-0.001-0.009l0-0.032c0.002-0.02,0.01-0.038,0.02-0.052c-0.065,0.09-0.129,0.18-0.197,0.275
				c-0.141,0.196-0.284,0.395-0.43,0.598c-0.04-0.061-0.089-0.154-0.136-0.246c-0.023-0.046-0.046-0.091-0.067-0.134
				c-1.125-1.972-2.162-3.791-3.027-5.307l0.016-0.009c-17.897-29.54-34.159-62.145-52.012-90.41
				c-26.68-46.648-53.182-94.261-80.733-140.838c-16.301-25.211-134.529-236.536-144.535-204.305
				c-2.959,8.885-5.096,17.523-6.025,26.428c-6.651,3.182-13.936,9.132-19.906,12.929c-15.378,17.911-23.113,42.124-31.348,65.256
				c-5.944,19.758-32.221,20.153-50.525,65.396c-22.199,51.25-44.51,102.756-66.869,154.375
				c-11.18,25.809-22.371,51.646-33.567,77.494c-5.597,12.924-11.195,25.851-16.793,38.777l-4.198,9.695l-1.049,2.424l-0.677,1.519
				l-1.254,2.795l-4.943,11.008l-15.547,2.523c-8.816,1.549-17.631,3.097-26.444,4.646c-18.001,3.172-35.994,6.343-53.971,9.511
				c-35.953,6.351-71.848,12.691-107.643,19.014c-4.057-1.671-12.609-0.198-17.38,1.997c-7.607-0.233-14.344,5.114-22.329,5.801
				c-24.343,1.562-49.892,9.647-73.323,11.104c-11.977,2.734-24.047,5.225-36.184,7.552c-3.036,0.572-6.074,1.144-9.114,1.716
				c-3.59,0.66-7.182,1.321-10.776,1.982c-9.487,1.723-18.984,3.447-28.49,5.173c-39.276,6.925-78.688,13.875-118.074,20.819
				c16.519,18.274,33.574,36.922,51.019,55.529l28.44,30.275l27.024,28.93c11.733,12.602,23.41,25.253,35.04,37.943
				c23.259,25.381,46.326,50.923,69.265,76.568c22.939,25.645,45.749,51.391,68.493,77.182c11.36,12.906,22.718,25.81,34.074,38.711
				l17.015,19.366l8.504,9.683l4.252,4.841l2.126,2.421l0.132,0.151l0.032,0.043l0.063,0.085l0.126,0.17l0.251,0.339
				c1.054,1.466,2.11,2.933,3.172,4.41l-0.889,3.694l-0.423,1.76l-0.104,0.431l-0.026,0.107l-0.013,0.058l-0.035,0.23l-0.138,0.922
				l-0.552,3.687c-1.451,9.836-2.904,19.683-4.358,29.541c-2.874,19.721-5.686,39.495-8.444,59.314
				c-5.516,39.637-10.815,79.453-15.96,119.384c-5.145,39.931-10.135,79.978-15.032,120.078
				c-8.054,66.449-16.115,132.964-24.174,199.457c78.607-36.879,157.172-73.738,235.46-110.467
				c54.32-25.46,108.516-50.683,162.522-75.385c0.033,0.145,0.073,0.305,0.135,0.437c18.22-8.604,36.637-17.302,55.163-26.05
				c9.269-4.361,18.564-8.735,27.876-13.117l5.727-2.699l1.239-0.607l2.5-1.225l3.523,1.551c5.661,2.604,11.32,5.206,16.97,7.805
				c12.99,5.96,25.947,11.904,38.833,17.817c25.788,11.789,51.331,23.369,76.364,34.541l-0.118-0.415
				c21.394,10.196,40.768,19.631,60.541,31.248c-0.689-0.502-1.256-1.091-1.561-1.856c5.506,2.593,11.04,5.2,16.573,7.806
				c-1.174,0.292-2.307,0.123-3.462-0.295c13.201,5.917,26.069,12.285,39.356,18.626c6.347-0.494,19.421,5.458,25.195,11.585
				c5.208-0.652,14.913,4.425,18.84,8.363l-0.051,0.036c0.083,0.119,0.145,0.208,0.164,0.316c4.483-0.187,8.076,2.127,11.487,5.056
				l-0.442,0.353l189.786,88.473l-8.442-68.818c0.163,0.141,0.354,0.357,0.524,0.555c-3.945-29.366-7.578-58.253-11.104-87.206
				l-2.595-21.478l-1.371-11.747l-2.7-23.499c-3.597-31.331-7.269-62.642-12.081-93.76c-0.159,1.462,3.655,31.642,3.937,34.029
				l-0.982,0.026c-6.506-52.939-13.034-106.054-19.542-159.007c0.913,0.457,1.299,1.516,1.573,2.715
				c-2.992-21.95-5.638-43.931-8.091-65.893c-1.226-10.981-2.404-21.958-3.552-32.923l-0.843-8.117l0.017-1.177l0.073-2.198
				l1.758-1.385l0.826-0.635l0.05-0.039l0.025-0.019c0.022-0.021-0.016,0.022,0.066-0.063l0.695-0.714l1.39-1.429l2.779-2.857
				c7.397-7.629,14.78-15.244,22.148-22.842c14.704-15.226,29.266-30.461,43.565-45.784c28.598-30.646,56.142-61.641,81.661-93.615
				c2.51-0.989,4.886-3.693,6.119-6.218c8.899-5.276,15.012-16.152,23.584-22.615c4.493-3.61,8.993-7.911,11.041-13.037
				l-0.502-0.125c12.947-14.294,26.516-27.75,40.074-41.113c3.388-3.342,6.773-6.68,10.156-10.016l2.531-2.507l1.424-1.426
				l2.33-2.401l9.333-9.645c12.448-12.901,24.928-25.994,37.15-39.146c12.345-13.441,24.416-26.959,36.4-40.325
				c12-13.384,23.913-26.617,36.366-39.944C1879.114,818.952,1874.65,818.057,1870.234,817.145z M1726.199,900.932l-0.398-0.21
				c-2.792,2.999-5.539,5.998-8.27,9.016c-3.66,4.048-7.306,8.079-10.941,12.099c-7.293,8.19-14.547,16.336-21.8,24.482
				c-14.47,16.325-28.932,32.658-44.089,49.002c0.263,7.922-8.478,12.811-13.248,19.043c-27.795,24.326-51.942,51.893-77.862,79.531
				c-15.406,16.697-30.87,33.456-46.387,50.274c-16.708,17.991-33.473,36.044-50.292,54.154
				c3.802,31.017,7.637,62.292,11.466,93.527c-0.317,0.092-0.636,0.177-0.955,0.244c5.765,56.523,11.404,112.95,18.359,169.139
				c0.158-0.051,0.298-0.099,0.459-0.119c0.375,10.692,10.461,69.81,8.573,78.528c1.047,11.951,2.221,23.91,3.434,35.87l0.915,8.97
				l0.39,3.91l0.295,3.137l1.146,12.392c0.734,8.165,1.395,16.151,1.862,23.698c0.466,7.539,0.739,14.638,0.668,20.808
				c-8.675-5.041-17.072-10.257-24.634-15.517c-7.563-4.179-14.608-7.952-21.435-11.494l-5.08-2.615l-2.721-1.375l-4.696-2.285
				c-6.273-3.019-12.54-6.035-18.802-9.049c-25.089-11.977-50.253-23.624-75.472-35.226
				c-50.439-23.205-101.099-46.233-151.827-71.375c-0.04,0.161-0.073,0.306-0.142,0.453c-15.708-8.644-31.788-16.752-48.113-24.518
				c-8.163-3.883-16.386-7.681-24.656-11.417c-5.84-2.644-11.686-5.291-17.536-7.94c-6.18-2.769-12.366-5.541-18.555-8.314
				c-8.143,3.983-16.293,7.969-24.449,11.957l-6.063,2.981l-2.983,1.469l-2.029,1.026l-8.118,4.11
				c-10.828,5.478-21.667,10.96-32.505,16.443c-21.704,10.91-43.503,21.627-65.553,31.63c0.089,0.317,0.173,0.609,0.292,0.923
				c-42.741,18.088-85.121,40.019-128.681,60.508c-27.355,12.486-54.595,25.941-81.96,39.469l-5.133,2.537l-1.284,0.634
				l-0.789,0.404l-1.58,0.808l-6.389,3.256c-4.354,2.189-8.711,4.379-13.071,6.57c-8.815,4.377-17.838,8.729-26.594,12.708
				c0.153-0.225,0.329-0.485,0.495-0.73c-2.186,1.008-4.379,2.018-6.605,3.045c1.799-14.636,3.175-28.809,4.178-43.731
				c0.251-3.733,0.479-7.515,0.686-11.369l0.151-2.905l0.072-1.463l0.036-0.734l0.076-1.068c0.201-2.919,0.402-5.833,0.603-8.739
				c0.769-11.629,1.398-23.162,1.867-34.535c3.086-7.825,1.689-19.802,3.442-29.097c1.586-2.411,1.364-7.679,1.438-10.98
				c7.925-32.473,7.947-71.282,13.389-106.191c4.702-29.102,9.422-60.265,14.093-92.613c2.336-16.174,4.659-32.645,6.962-49.302
				c1.141-8.33,2.287-16.705,3.438-25.112c1.495-11.384,2.996-22.81,4.499-34.261c-15.558-16.919-31.19-33.919-46.75-50.84
				c-13.578-14.667-27.094-29.265-40.419-43.658c-26.706-28.733-52.752-56.547-77.063-82.383c-0.085,0.122-0.182,0.256-0.288,0.355
				c-27.796-30.722-55.524-61.871-83.217-93.112l-10.383-11.719l-5.19-5.861l-2.595-2.931l-1.148-1.305l-0.727-0.854l-11.281-13.287
				c-6.913-8.175-13.821-16.344-20.714-24.495c13.331-2.03,25.781-3.943,37.572-5.826c2.914-0.471,5.825-0.941,8.733-1.411
				l4.603-0.767c2.873-0.52,5.745-1.039,8.615-1.558c11.472-2.114,22.915-4.223,34.326-6.326c15.51,2.263,38.754-10.07,50.77-8.102
				c14.538-5.203,26.938-0.18,36.461-5.434c4.13,0.948,9.164-0.246,13.067-2.154c-0.024,0.042-0.075,0.107-0.126,0.172
				c39.467-5.968,79.047-11.953,118.708-17.951c19.83-2.999,39.681-6.002,59.547-9.007c9.932-1.512,19.867-3.024,29.807-4.537
				c17.232-2.941,34.471-5.884,51.715-8.828c4.785-10.93,9.572-21.863,14.359-32.797l3.623-8.289l1.817-4.158l0.809-1.839
				l0.526-1.151l4.207-9.211c5.592-12.289,11.185-24.582,16.779-36.876c11.158-24.602,22.253-49.24,33.259-73.913
				c22.011-49.346,43.661-98.833,64.72-148.457c8.957-37.407,40.162-84.503,54.723-125.91c2.278,5.379,4.956,11.009,8.105,16.96
				c7.561,12.67,8.975,25.788,15.659,38.528c7.626,14.404,17.85,31.309,26.543,43.037c3.124,6.706,4.96,13.858,9.799,20.017
				c11.875,16.585,22.652,38.786,31.052,57.586c27.408,49.271,56.268,98.965,82.395,149.427
				c7.754,15.683,15.905,31.106,24.356,46.337c4.225,7.616,8.526,15.183,12.888,22.712l8.938,15.373l9.305,15.816l24.696,4.343
				l6.133,1.055l3.059,0.523l2.218,0.358l8.764,1.391c11.689,1.836,23.391,3.603,35.105,5.338
				c23.432,3.441,46.882,6.885,70.376,10.336c54.645,12.215,110.278,22.753,166.234,32.812c13.994,2.489,28.002,4.98,42.018,7.473
				c7.01,1.234,14.022,2.469,21.035,3.704l10.469,1.84l7.551,1.273c20.216,3.414,41.326,7.033,62.576,10.874
				C1753.11,872.206,1739.702,886.735,1726.199,900.932z"/>
			<path style="fill:#FFB000;" d="M1281.968,1617.775c0.572,0.417,1.226,0.775,1.899,1.115
				C1283.233,1618.514,1282.601,1618.146,1281.968,1617.775z"/>
			<path style="fill:#FFB000;" d="M1522.866,892.947l-35.568-7.369l-18.784-4.074c-25.039-5.413-50.097-10.754-75.163-16.023
				c-25.076-5.26-50.169-10.456-75.281-15.58c-12.565-2.544-25.13-5.088-37.704-7.64l-18.875-3.775l-2.354-0.471l-1.005-0.199
				v-0.027c0-0.009,0.009-0.027,0.009-0.036l-0.127,0.181l-0.271,0.389c-0.027-0.045-0.063-0.1-0.09-0.163l-0.045-0.082
				c-0.724-1.285-1.403-2.462-1.964-3.44l0.018-0.009c-11.596-19.137-22.134-40.257-33.694-58.561
				c-17.281-30.217-34.454-61.06-52.297-91.232c-10.564-16.331-87.149-153.215-93.631-132.339
				c-1.919,5.748-3.304,11.343-3.902,17.118c-4.309,2.064-9.025,5.92-12.891,8.374c-9.958,11.605-14.973,27.284-20.305,42.266
				c-3.847,12.8-20.875,13.063-32.725,42.366c-14.385,33.196-28.832,66.564-43.317,99.995c-7.242,16.72-14.493,33.458-21.744,50.206
				l-10.881,25.112l-2.716,6.282l-1.123,2.553l-0.815,1.811l-3.196,7.133l-10.075,1.629l-17.128,3.015
				c-11.66,2.055-23.31,4.11-34.961,6.156c-23.292,4.119-46.539,8.229-69.723,12.321c-2.634-1.086-8.174-0.127-11.261,1.295
				c-4.925-0.154-9.288,3.313-14.466,3.757c-15.77,1.014-32.318,6.246-47.49,7.197c-7.758,1.765-15.579,3.377-23.446,4.888
				c-4.282,0.797-8.582,1.593-12.882,2.399c-6.147,1.114-12.293,2.227-18.458,3.349c-25.438,4.481-50.966,8.989-76.476,13.479
				c10.7,11.841,21.744,23.926,33.042,35.975l18.422,19.608l17.508,18.739c7.604,8.165,15.163,16.358,22.695,24.578
				c15.073,16.449,30.009,32.987,44.874,49.599c14.855,16.611,29.629,33.295,44.367,49.997c7.36,8.365,14.71,16.72,22.07,25.076
				l11.017,12.547l5.513,6.273l2.752,3.132l1.376,1.566l0.091,0.099l0.018,0.027l0.045,0.054l0.082,0.118l0.163,0.217
				c0.679,0.95,1.367,1.901,2.055,2.851l-0.579,2.399l-0.272,1.141l-0.072,0.281l-0.018,0.063l-0.009,0.036l-0.018,0.154
				l-0.091,0.597l-0.353,2.39c-0.942,6.364-1.883,12.746-2.824,19.128c-1.865,12.782-3.684,25.592-5.468,38.428
				c-3.576,25.673-7.007,51.464-10.338,77.327c-3.34,25.872-6.572,51.808-9.741,77.789c-5.214,43.036-10.438,86.126-15.661,129.198
				c50.921-23.89,101.814-47.761,152.527-71.561c35.187-16.485,70.293-32.825,105.272-48.829c0.027,0.09,0.045,0.199,0.091,0.281
				c11.805-5.567,23.727-11.207,35.73-16.874c6.002-2.824,12.022-5.658,18.06-8.491l3.712-1.747l0.797-0.398l1.62-0.797l2.281,1.005
				c3.666,1.693,7.333,3.377,10.999,5.06c8.41,3.856,16.802,7.713,25.148,11.542c16.711,7.631,33.25,15.136,49.472,22.369
				l-0.081-0.263c13.859,6.599,26.406,12.71,39.207,20.242c-0.444-0.326-0.806-0.715-1.005-1.204
				c3.567,1.675,7.151,3.368,10.736,5.06c-0.76,0.181-1.494,0.072-2.236-0.199c8.546,3.838,16.883,7.957,25.492,12.067
				c4.11-0.317,12.583,3.54,16.322,7.505c3.368-0.416,9.659,2.87,12.203,5.422l-0.036,0.018c0.054,0.082,0.099,0.136,0.109,0.208
				c2.906-0.127,5.232,1.376,7.441,3.277l-0.29,0.226l122.943,57.312l-5.468-44.584c0.1,0.091,0.226,0.235,0.335,0.362
				c-2.553-19.019-4.906-37.731-7.188-56.488l-2.571-21.518l-1.747-15.226c-2.336-20.296-4.716-40.574-7.83-60.734
				c-0.1,0.95,2.372,20.495,2.553,22.043l-0.634,0.018c-4.218-34.291-8.446-68.7-12.665-103c0.598,0.299,0.842,0.978,1.023,1.756
				c-1.937-14.213-3.657-28.452-5.241-42.683c-0.77-7.115-1.539-14.222-2.299-21.328l-0.552-5.26l0.018-0.76l0.045-1.421
				l1.141-0.896l0.534-0.416c0.027-0.027,0.018,0,0.09-0.072l0.453-0.462l0.896-0.932l1.802-1.847
				c4.789-4.943,9.578-9.876,14.348-14.801c9.523-9.858,18.956-19.726,28.217-29.656c18.521-19.852,36.364-39.931,52.894-60.634
				c1.629-0.643,3.168-2.399,3.965-4.028c5.767-3.422,9.723-10.465,15.281-14.656c2.906-2.336,5.821-5.124,7.151-8.446l-0.326-0.073
				c8.383-9.261,17.173-17.978,25.963-26.633c2.191-2.164,4.381-4.327,6.572-6.491l1.638-1.62l0.923-0.923l1.512-1.557l6.047-6.246
				c8.066-8.365,16.15-16.838,24.062-25.365c7.993-8.7,15.815-17.462,23.582-26.117c7.767-8.672,15.489-17.245,23.555-25.872
				c-2.906-0.588-5.803-1.168-8.69-1.747C1569.351,902.652,1546.104,897.799,1522.866,892.947z"/>
			<path style="fill:#FFB000;" d="M1211.54,1426.125c0.371,0.272,0.806,0.498,1.24,0.724
				C1212.363,1426.605,1211.956,1426.36,1211.54,1426.125z"/>
		</g>
		<ellipse style="fill:#D3D3D3;" cx="1100" cy="1894.238" rx="624.5" ry="40"/>
	</g>
</g>
</svg>
